<?xml version="1.0" encoding="iso-8859-1"?>
<!-- Generator: Adobe Illustrator 16.0.0, SVG Export Plug-In . SVG Version: 6.00 Build 0)  -->
<!DOCTYPE svg PUBLIC "-//W3C//DTD SVG 1.1//EN" "http://www.w3.org/Graphics/SVG/1.1/DTD/svg11.dtd">
<svg version="1.1" id="Capa_1" xmlns="http://www.w3.org/2000/svg" xmlns:xlink="http://www.w3.org/1999/xlink"
	 x="0px"
     y="0px"
	 viewBox="0 0 526.403 526.404"
	 style="fill: #7D2505;"
     xml:space="preserve">
<g>
	<g id="Layer_2_35_">
		<path d="M358.486,171.895c4.266,6.005,8.367,14.544,8.97,25.704c8.014,2.553,17.528,7.325,27.474,16.026
			c6.358,5.565,9.811,12.575,11.197,20.062c2.151-0.268,4.342-0.421,6.531-0.421c15.615,0,28.486,7.822,35.305,21.458
			c9.085,18.169,3.309,35.822-6.799,49.83c7.172,5.289,13.913,12.652,18.953,22.73c16.792,33.594,12.699,42.076-15.74,70.514
			l-0.889,0.891c9.39,11.656,24.986,12.363,48.022,12.363c4.562,0,16.094-1.262,24.882-12.908
			c8.721-11.562,16.198-35.535,2.323-84.094C501.981,255.423,438.018,193.496,358.486,171.895z"/>
        <path d="M443,335.777c-10.423-20.847-29.777-23.705-35.027-24.098c-0.812-0.058-1.311-0.067-1.367-0.067l0,0
			c0,0,0.421-0.286,1.014-0.708c5.613-3.978,34.214-25.693,23.246-47.631c-4.083-8.175-10.93-10.881-18.197-10.881
			c-12.307,0-25.79,7.717-29.357,9.907c-0.583,0.354-0.966,0.602-0.966,0.602s0.229-0.468,0.584-1.262
			c2.257-5.068,9.906-24.432-0.584-33.622c-13.865-12.135-25.694-14.085-31.853-14.085c-0.134,0-0.229,0.009-0.354,0.009
			c-2.658,0.039-4.198,0.421-4.198,0.421c0.459-1.377,0.718-2.658,1.043-3.968c8.232-33.258-25.771-44.562-37.438-44.562
			c-4.887,0-11.733,0.985-18.169,2.161c-7.439,1.358-14.315,2.955-17.012,3.605c-0.765,0.182-1.214,0.297-1.214,0.297
			s0-0.249-0.02-0.641c-0.076-1.827-0.564-7.631-3.061-14.889c-0.975-2.84-2.285-5.881-3.997-9.017
			c-6.349-11.657-18.379-24.27-41.453-30.046c-5.393-1.348-10.633-1.951-15.692-1.951c-40.469,0-69.232,38.346-69.232,38.346
			c-14-8.396-26.058-11.628-36.328-11.628c-34.234,0-48.597,35.898-48.597,35.898c-4.408-1.1-8.224-1.607-11.503-1.607
			c-32.809,0-12.756,50.136-12.756,50.136c-56.639,22.654-18.092,55.883-12.737,60.187c27.798-52.68,78.345-99.04,170.184-101.592
			c1.062-0.029,2.859-0.201,4.733-0.383c2.907-0.268,5.958-0.535,7.669-0.535c107.319,0,176.839,110.8,210.317,181.688
			c1.071,2.275,2.113,4.514,3.117,6.703c1.349,2.945,3.376,5.986,5.661,9.018l7.02,1.654l4.389,1.031
			c1.616-1.615,3.117-3.117,4.523-4.531C455.059,359.912,454.322,358.421,443,335.777z"/>
        <path d="M399.854,386.783c-1.282-2.074-2.486-4.17-3.452-6.283c-0.728-1.596-1.502-3.24-2.276-4.895
			c-31.202-66.604-96.112-172.317-193.765-172.317c-1.31,0-3.663,0.239-5.891,0.449c-2.362,0.22-4.628,0.431-5.977,0.469
			c-79.809,2.218-125.326,41.444-151.241,87.381c-1.625,2.889-3.165,5.805-4.647,8.731c-1.482,2.936-2.878,5.89-4.208,8.854
			C12.477,344.554,6.529,381.562,4.416,407.4h412.526c-2.754-2.688-5.479-5.633-8.128-8.684
			C405.486,394.912,402.407,390.923,399.854,386.783z M200.361,281.088c0-10.05,8.147-18.197,18.197-18.197
			s18.197,8.147,18.197,18.197s-8.147,18.198-18.197,18.198S200.361,291.138,200.361,281.088z M260.997,354.099
			c-0.038,3.375-1.033,6.512-2.678,9.207c-3.194,5.24-8.912,8.779-15.5,8.779c-9.524,0-17.26-7.344-18.044-16.668
			c-0.048-0.516-0.153-1.004-0.153-1.529c0-2.85,0.708-5.508,1.875-7.908c1.664-3.424,4.351-6.207,7.679-8.023
			c2.582-1.406,5.499-2.275,8.635-2.275c6.187,0,11.638,3.098,14.927,7.822c2.056,2.945,3.27,6.512,3.27,10.375
			C261.016,353.955,260.997,354.021,260.997,354.099z M279.214,323.556c-10.051,0-18.198-8.148-18.198-18.197
			c0-10.051,8.147-18.198,18.198-18.198c10.05,0,18.197,8.147,18.197,18.198C297.411,315.408,289.264,323.556,279.214,323.556z"/>
	</g>
</g>
</svg>
